<svg xmlns="http://www.w3.org/2000/svg" viewBox="0 0 720 280" width="800" height="400">
  <defs>
    <linearGradient id="archbg" x1="0%" y1="0%" x2="100%" y2="100%">
      <stop offset="0%" style="stop-color:#1a1a2e"/>
      <stop offset="100%" style="stop-color:#16213e"/>
    </linearGradient>
    <marker id="arrowhead" markerWidth="10" markerHeight="7" refX="10" refY="3.5" orient="auto">
      <polygon points="0 0, 10 3.5, 0 7" fill="#f72585"/>
    </marker>
  </defs>
  <rect width="720" height="280" fill="url(#archbg)" rx="12"/>
  <text x="360" y="30" text-anchor="middle" fill="#a0a0b8" font-family="Segoe UI,Arial,sans-serif" font-size="11" font-weight="600" text-transform="uppercase" letter-spacing="2">ARCHITECTURE</text>
  <rect x="50" y="50" width="140" height="60" rx="8" fill="#f72585" fill-opacity="0.15" stroke="#f72585" stroke-width="2"/>
  <text x="120" y="85" text-anchor="middle" fill="white" font-family="Segoe UI,Arial,sans-serif" font-size="13" font-weight="600">CSV Time Log</text>
  <rect x="240" y="50" width="140" height="60" rx="8" fill="#d1145a" fill-opacity="0.15" stroke="#d1145a" stroke-width="2"/>
  <text x="310" y="85" text-anchor="middle" fill="white" font-family="Segoe UI,Arial,sans-serif" font-size="13" font-weight="600">Analytics Engine</text>
  <rect x="430" y="50" width="140" height="60" rx="8" fill="#f72585" fill-opacity="0.15" stroke="#f72585" stroke-width="2"/>
  <text x="500" y="85" text-anchor="middle" fill="white" font-family="Segoe UI,Arial,sans-serif" font-size="13" font-weight="600">Productivity Score</text>
  <rect x="50" y="170" width="140" height="60" rx="8" fill="#d1145a" fill-opacity="0.15" stroke="#d1145a" stroke-width="2"/>
  <text x="120" y="205" text-anchor="middle" fill="white" font-family="Segoe UI,Arial,sans-serif" font-size="13" font-weight="600">Pomodoro Planner</text>
  <rect x="240" y="170" width="140" height="60" rx="8" fill="#f72585" fill-opacity="0.15" stroke="#f72585" stroke-width="2"/>
  <text x="310" y="205" text-anchor="middle" fill="white" font-family="Segoe UI,Arial,sans-serif" font-size="13" font-weight="600">Gemma 4 / Ollama</text>
  <rect x="430" y="170" width="140" height="60" rx="8" fill="#d1145a" fill-opacity="0.15" stroke="#d1145a" stroke-width="2"/>
  <text x="500" y="205" text-anchor="middle" fill="white" font-family="Segoe UI,Arial,sans-serif" font-size="13" font-weight="600">Coach Reports</text>
  <line x1="190" y1="80" x2="240" y2="80" stroke="#f72585" stroke-width="2" marker-end="url(#arrowhead)"/>
  <line x1="380" y1="80" x2="430" y2="80" stroke="#f72585" stroke-width="2" marker-end="url(#arrowhead)"/>
  <line x1="120" y1="110" x2="120" y2="170" stroke="#f72585" stroke-width="2" marker-end="url(#arrowhead)"/>
  <line x1="310" y1="110" x2="310" y2="170" stroke="#f72585" stroke-width="2" marker-end="url(#arrowhead)"/>
  <line x1="380" y1="200" x2="430" y2="200" stroke="#f72585" stroke-width="2" marker-end="url(#arrowhead)"/>
</svg>